<svg width="103" height="83" viewBox="0 0 103 83" fill="none" xmlns="http://www.w3.org/2000/svg">
<path fill-rule="evenodd" clip-rule="evenodd" d="M21.3934 0.583374C15.5163 0.583374 11.1676 5.72728 11.3623 11.3058C11.5491 16.6653 11.3064 23.6065 9.55891 29.2671C7.8062 34.9442 4.84186 38.5406 0 39.0024V44.215C4.84186 44.6768 7.8062 48.2732 9.55891 53.9507C11.3064 59.611 11.5491 66.5523 11.3623 71.9117C11.1676 77.4896 15.5163 82.634 21.3943 82.634H81.6142C87.4916 82.634 91.8395 77.4905 91.6447 71.9117C91.458 66.5523 91.7005 59.611 93.448 53.9507C95.2016 48.2732 98.1581 44.6768 103 44.215V39.0024C98.1581 38.5406 95.2016 34.9442 93.448 29.2671C91.7005 23.6073 91.458 16.6653 91.6447 11.3058C91.8395 5.72814 87.4916 0.583374 81.6142 0.583374H21.3934ZM69.8306 51.0907C69.8306 58.7724 64.1008 63.431 54.5926 63.431H38.4068C37.9438 63.431 37.4997 63.2469 37.1724 62.9194C36.8449 62.5919 36.661 62.1482 36.661 61.6851V21.5325C36.661 21.0695 36.8449 20.6255 37.1724 20.2981C37.4997 19.9707 37.9438 19.7868 38.4068 19.7868H54.5003C62.4283 19.7868 67.6315 24.0813 67.6315 30.6751C67.6315 35.303 64.1317 39.4466 59.6718 40.1719V40.4139C65.7428 41.08 69.8306 45.2837 69.8306 51.0907ZM52.8278 25.3208H43.5986V38.3565H51.3717C57.3804 38.3565 60.694 35.9368 60.694 31.6117C60.694 27.5589 57.8448 25.3208 52.8278 25.3208ZM43.5986 43.5292V57.8951H53.1673C59.4233 57.8951 62.7373 55.3845 62.7373 50.6667C62.7373 45.948 59.3306 43.5284 52.7648 43.5284L43.5986 43.5292Z" fill="#7B4AE2" fill-opacity="0.5"/>
</svg>
