<svg width="105" height="123" viewBox="0 0 105 123" fill="none" xmlns="http://www.w3.org/2000/svg">
<path d="M14.0625 12.3001C13.0011 12.3001 12.1406 13.1605 12.1406 14.222V87.6398C12.1406 88.3263 12.5072 88.9613 13.1023 89.3042L50.4537 110.849C51.0349 111.184 51.749 111.192 52.3375 110.87L91.8608 89.2119C92.4765 88.8744 92.8594 88.2287 92.8594 87.5268V14.222C92.8594 13.1605 91.9991 12.3001 90.9375 12.3001H14.0625ZM0.609375 14.222C0.609375 6.79197 6.63253 0.768799 14.0625 0.768799H90.9375C98.3675 0.768799 104.391 6.79198 104.391 14.222V87.5268C104.391 92.4407 101.712 96.9632 97.4027 99.3248L57.8788 120.982C53.7594 123.239 48.761 123.185 44.6921 120.838L7.3407 99.2933C3.17562 96.8909 0.609375 92.4483 0.609375 87.6398V14.222ZM29.4375 33.4407C29.4375 30.2564 32.0189 27.6751 35.2031 27.6751H70.684C73.8682 27.6751 76.4496 30.2564 76.4496 33.4407V80.3052C76.4496 82.4884 75.2158 84.4849 73.2624 85.4619L55.522 94.3318C53.8988 95.1436 51.9882 95.1436 50.365 94.3318L32.6247 85.4619C30.6713 84.4849 29.4375 82.4884 29.4375 80.3052V75.8698C29.4375 72.6855 32.0189 70.1042 35.2031 70.1042C38.3874 70.1042 40.9688 72.6855 40.9688 75.8698V76.7415L52.9435 82.729L64.9183 76.7415V63.895H44.8125C41.6283 63.895 39.0469 61.3137 39.0469 58.1293C39.0469 54.9451 41.6283 52.3637 44.8125 52.3637H64.9183V39.2063H35.2031C32.0189 39.2063 29.4375 36.6249 29.4375 33.4407Z" fill="#7B4AE2" fill-opacity="0.5"/>
</svg>
