<svg width="104" height="104" viewBox="0 0 104 104" fill="none" xmlns="http://www.w3.org/2000/svg">
<path d="M81.069 29.2494L83.3133 30.8743C87.2165 34.0226 89.4608 37.5772 89.9487 41.6395C94.1446 40.8271 99.5114 41.4364 101.853 43.0613L104 44.3816L103.61 45.1941C102.927 46.7174 102.731 47.1237 102.634 47.3268C98.8283 54.9437 91.3148 55.0452 87.8019 54.9437C78.9223 77.185 59.9921 89.4735 34.4265 89.4735C22.6195 89.4735 13.6422 85.7159 7.59236 78.3021C-0.409082 68.5525 -0.409082 55.8577 0.273968 51.7954L0.469125 50.9829H71.0184C74.7264 50.9829 77.5562 49.9673 78.9223 49.1549C77.4586 46.9206 76.9707 44.3816 76.8731 42.9598C76.5804 38.8975 77.5562 34.632 79.5078 31.5852L81.069 29.2494ZM18.8139 38.7959V48.9517H8.08025V38.7959H18.8139ZM31.4991 38.7959V48.9517H20.7655V38.7959H31.4991ZM44.1843 38.7959V48.9517H33.4507V38.7959H44.1843ZM56.8695 38.7959V48.9517H46.1359V38.7959H56.8695ZM69.5548 38.7959V48.9517H58.8211V38.7959H69.5548ZM56.8695 26.6089V36.7647H46.1359V26.6089H56.8695ZM44.1843 26.6089V36.7647H33.4507V26.6089H44.1843ZM31.4991 26.6089V36.7647H20.7655V26.6089H31.4991ZM56.8695 14.4219V24.5777H46.1359V14.4219H56.8695Z" fill="#7B4AE2" fill-opacity="0.5"/>
</svg>
