<svg width="52" height="76" viewBox="0 0 52 76" fill="none" xmlns="http://www.w3.org/2000/svg">
<path d="M14.5001 26.3331C8.14876 26.3331 3 21.1098 3 14.6665C3 8.22328 8.14876 3 14.5001 3H26.0003V26.3331M14.5001 26.3331H26.0003M14.5001 26.3331C8.14876 26.3331 3 31.5559 3 37.9989C3 44.4424 8.14876 49.6657 14.5001 49.6657H26.0003V26.3331M37.4997 26.3325C31.1485 26.3325 25.9997 31.5559 25.9997 37.9989C25.9997 44.4424 31.1485 49.6657 37.4997 49.6657C43.8512 49.6657 49 44.4424 49 37.9989C49 31.5559 43.8512 26.3325 37.4997 26.3325ZM37.4997 26.3325C43.8512 26.3325 49 21.1098 49 14.6665C49 8.22328 43.8512 3 37.4997 3H25.9997V26.3331L37.4997 26.3325ZM14.5001 49.6668H26.0003V61.3332C26.0003 67.7767 20.8515 73 14.5001 73C8.14876 73 3 67.7767 3 61.3332C3 54.8901 8.14876 49.6668 14.5001 49.6668Z" stroke="#7B4AE2" stroke-opacity="0.5" stroke-width="5"/>
</svg>
