<svg width="103" height="103" viewBox="0 0 103 103" fill="none" xmlns="http://www.w3.org/2000/svg">
<path fill-rule="evenodd" clip-rule="evenodd" d="M101.057 46.9116L56.0859 1.94274C53.4979 -0.647578 49.2972 -0.647578 46.7058 1.94274L37.3675 11.2812L49.2136 23.1275C51.9666 22.1974 55.1231 22.8212 57.3178 25.016C59.5227 27.2243 60.142 30.4079 59.1893 33.17L70.6059 44.5868C73.3679 43.6353 76.5549 44.2512 78.7609 46.4606C81.8439 49.5426 81.8439 54.5379 78.7609 57.622C75.6768 60.7062 70.6816 60.7062 67.5963 57.622C65.2773 55.3007 64.7043 51.8944 65.8785 49.0374L55.2316 38.3902L55.2304 66.409C55.982 66.7819 56.6917 67.2781 57.3178 67.9019C60.4008 70.9839 60.4008 75.9791 57.3178 79.0656C54.2336 82.1487 49.2362 82.1487 46.1566 79.0656C43.0736 75.9791 43.0736 70.9839 46.1566 67.9019C46.9183 67.1413 47.7998 66.5661 48.7401 66.1796V37.8997C47.7998 37.5155 46.9194 36.9436 46.1566 36.1774C43.8206 33.8447 43.2589 30.417 44.4557 27.5486L32.7792 15.8696L1.94355 46.7036C-0.647848 49.2962 -0.647848 53.497 1.94355 56.0873L46.9149 101.057C49.504 103.648 53.7036 103.648 56.2961 101.057L101.057 56.2964C103.648 53.7049 103.648 49.5019 101.057 46.9116" fill="#7B4AE2" fill-opacity="0.5"/>
</svg>
