<svg width="104" height="123" viewBox="0 0 104 123" fill="none" xmlns="http://www.w3.org/2000/svg">
<path d="M13.4815 11.6383C12.4178 11.6383 11.5556 12.5068 11.5556 13.578V87.6777C11.5556 88.3706 11.9229 89.0115 12.5192 89.3575L49.9494 111.103C50.5318 111.441 51.2474 111.449 51.8371 111.124L91.4437 89.2644C92.0608 88.9238 92.4444 88.2721 92.4444 87.5637V13.578C92.4444 12.5068 91.5824 11.6383 90.5185 11.6383H13.4815ZM0 13.578C0 6.0791 6.03585 0 13.4815 0H90.5185C97.9642 0 104 6.07911 104 13.578V87.5637C104 92.5232 101.315 97.0877 96.9973 99.4712L57.3901 121.33C53.2621 123.608 48.2532 123.552 44.1757 121.184L6.74552 99.4394C2.57165 97.0148 0 92.5309 0 87.6777V13.578ZM28.8889 32.9753C28.8889 29.7615 31.4757 27.1561 34.6667 27.1561H70.2223C73.4132 27.1561 76.0001 29.7615 76.0001 32.9753C76.0001 36.1891 73.4132 38.7944 70.2223 38.7944H40.4444V52.0741H70.2223C73.4132 52.0741 76.0001 54.6793 76.0001 57.8932V80.275C76.0001 82.4785 74.7637 84.4935 72.8062 85.4796L55.0283 94.4318C53.4018 95.2512 51.4872 95.2512 49.8605 94.4318L32.0828 85.4796C30.1253 84.4935 28.8889 82.4785 28.8889 80.275V75.7983C28.8889 72.5845 31.4757 69.9792 34.6667 69.9792C37.8576 69.9792 40.4444 72.5845 40.4444 75.7983V76.6782L52.4444 82.7214L64.4445 76.6782V63.7124H34.6667C31.4757 63.7124 28.8889 61.107 28.8889 57.8932V32.9753Z" fill="#7B4AE2" fill-opacity="0.5"/>
</svg>
