<svg width="104" height="108" viewBox="0 0 104 108" fill="none" xmlns="http://www.w3.org/2000/svg">
<path d="M42.0004 80.5474L78.6104 59.6525L61.9784 50.0765L25.3929 71.143L42.0004 80.5474ZM80.2939 37.809L63.6444 28.233V47.1925L80.2974 56.772L80.2939 37.809ZM81.9564 15.773L65.3104 25.349L81.9564 34.925L98.5989 25.3455L81.9564 15.773ZM30.6884 64.2479L40.3484 58.6865V16.9175L23.6954 26.5005V68.2695L30.6884 64.2479ZM22.0294 4.46095L5.38341 14.0405L22.0294 23.62L38.6649 14.0405L22.0294 4.46095ZM3.71391 16.921V81.503L40.3379 102.58V83.4315L21.1859 72.5955C21.1229 72.55 21.0739 72.501 21.0074 72.459C20.9584 72.4135 20.9024 72.3785 20.8534 72.34L20.8499 72.3294C20.7974 72.2769 20.7519 72.221 20.7134 72.158L20.7099 72.1545C20.6609 72.109 20.6224 72.0565 20.5874 71.997L20.5839 71.9935H20.5734C20.5454 71.941 20.5174 71.871 20.4894 71.801L20.4859 71.787C20.4614 71.7345 20.4334 71.675 20.4089 71.6085L20.4054 71.598C20.3914 71.528 20.3774 71.4405 20.3704 71.353V71.3459C20.3599 71.2934 20.3494 71.2305 20.3424 71.1675V71.1639V26.5075L10.6929 20.9425L3.71391 16.921ZM80.2974 81.4995V62.5224L43.6734 83.4315V102.576L80.2974 81.4995ZM100.261 47.1925V28.233L83.6154 37.8125V56.772L100.261 47.1925ZM103.537 24.915C103.576 25.048 103.6 25.1985 103.6 25.356V48.1515C103.6 48.7675 103.268 49.303 102.771 49.59L102.764 49.5935L83.6259 60.6149V82.4585C83.6259 83.071 83.2934 83.6065 82.7999 83.897L82.7929 83.9004L42.8369 106.895C42.7529 106.941 42.6549 106.983 42.5534 107.011L42.5429 107.014L42.4379 107.06C42.3119 107.098 42.1649 107.119 42.0144 107.119C41.8639 107.119 41.7169 107.098 41.5769 107.056L41.5874 107.06C41.5349 107.046 41.4929 107.028 41.4509 107.004L41.4544 107.007C41.3459 106.969 41.2549 106.934 41.1674 106.892L41.1814 106.899L1.23591 83.904C0.731914 83.61 0.399414 83.0745 0.399414 82.462V14.044C0.399414 13.89 0.423914 13.7395 0.465914 13.5995L0.462414 13.61C0.476414 13.5575 0.507914 13.5225 0.525414 13.47C0.556914 13.3685 0.591914 13.2845 0.630414 13.204L0.626914 13.2145C0.654914 13.1585 0.689914 13.1095 0.728414 13.0675L0.875414 12.868L1.03991 12.749C1.10291 12.6965 1.15891 12.644 1.22191 12.5985H1.22541L21.2034 1.10095C21.4414 0.960953 21.7284 0.876953 22.0329 0.876953C22.3374 0.876953 22.6244 0.960953 22.8694 1.10445L22.8624 1.10095L42.8474 12.5985C42.9139 12.644 42.9699 12.693 43.0259 12.7455L43.1939 12.8645C43.2499 12.9275 43.2814 12.9975 43.3409 13.064C43.3829 13.106 43.4179 13.155 43.4494 13.2075L43.4529 13.211C43.4879 13.281 43.5229 13.365 43.5544 13.4525L43.5579 13.4665L43.6139 13.6065C43.6524 13.729 43.6769 13.8725 43.6769 14.0195C43.6769 14.0265 43.6769 14.0335 43.6769 14.0405V56.7685L60.3229 47.189V25.3455C60.3229 25.342 60.3229 25.3385 60.3229 25.3385C60.3229 25.188 60.3439 25.041 60.3824 24.901L60.3789 24.9115C60.3929 24.866 60.4244 24.824 60.4349 24.7715C60.4699 24.6665 60.5049 24.5825 60.5469 24.4985L60.5399 24.5125C60.5714 24.46 60.6204 24.425 60.6519 24.3655C60.7044 24.299 60.7464 24.2325 60.7989 24.1765C60.8479 24.131 60.9004 24.089 60.9564 24.054L60.9599 24.0505C61.0229 24.005 61.0754 23.949 61.1419 23.9105H61.1454L81.1234 12.4095C81.3614 12.2695 81.6484 12.1855 81.9529 12.1855C82.2574 12.1855 82.5444 12.2695 82.7894 12.413L82.7824 12.4095L102.76 23.9105C102.83 23.956 102.879 24.005 102.946 24.047C102.998 24.0925 103.058 24.1275 103.107 24.1695C103.163 24.2325 103.205 24.3025 103.257 24.3655C103.296 24.4075 103.331 24.4565 103.362 24.5055L103.366 24.509C103.408 24.586 103.443 24.6735 103.471 24.7645L103.474 24.775C103.502 24.817 103.523 24.8625 103.541 24.9115L103.537 24.915Z" fill="#7B4AE2" fill-opacity="0.5"/>
</svg>
