<svg width="103" height="101" viewBox="0 0 103 101" fill="none" xmlns="http://www.w3.org/2000/svg">
<path d="M101.773 98.5418L99.6305 96.5046C98.572 95.1113 97.446 93.878 96.2188 92.7542L96.1977 92.7373C94.9382 91.5952 93.6295 90.5092 92.2715 89.4794C91.1835 88.733 89.6878 87.8336 87.7845 86.7813C86.2199 86.0783 84.9969 84.845 84.3348 83.3129L84.318 83.2708L84.1155 83.1698C85.0096 83.0814 85.8277 82.9172 86.6121 82.6857L86.5151 82.711L88.9189 82.0501C89.9141 81.7386 91.0654 81.5366 92.2589 81.4903H92.2842C93.5409 81.4398 94.7259 81.2378 95.8561 80.9052L95.7507 80.9305C96.2961 80.7958 96.857 80.6428 97.4333 80.4717C98.0097 80.3005 98.5031 80.1476 98.9136 80.0129V79.3015C98.5059 78.6926 98.0125 77.9967 97.4333 77.2137C96.8809 76.4645 96.261 75.8121 95.5651 75.2438L95.5441 75.227C93.7757 73.6668 91.944 72.1571 90.0491 70.6979C88.3791 69.3973 86.4856 68.0713 84.5204 66.8422L84.2336 66.6739C83.1962 65.992 82.007 65.3606 80.7545 64.8429L80.6111 64.7924C79.3516 64.2816 78.1103 63.7218 76.8873 63.1129C76.4783 62.9108 76.0017 62.7341 75.5083 62.612L75.4619 62.6036C74.9685 62.5026 74.5468 62.25 74.2389 61.8922L74.2347 61.888C73.6528 61.1219 73.1425 60.2506 72.7376 59.3246L72.7039 59.2404C72.2962 58.2891 71.8548 57.3757 71.3797 56.5002C70.3592 54.5303 69.3723 52.5281 68.4193 50.4937C67.4662 48.4592 66.5511 46.422 65.6739 44.3819C65.0638 43.0237 64.5029 41.667 63.9912 40.3116C63.4261 38.8215 62.7893 37.5461 62.0471 36.3465L62.1019 36.4433C60.2801 33.3454 58.4625 30.702 56.4889 28.1891L56.607 28.349C54.6544 25.8909 52.6302 23.6936 50.4541 21.6564L50.4204 21.6269C48.2739 19.6149 45.9629 17.6955 43.538 15.9192L43.3314 15.7719C40.8123 13.9451 38.0571 12.1464 35.0657 10.3757C33.8638 9.66856 32.4679 9.09189 30.9962 8.72148L30.8865 8.69623L26.1928 7.52607L23.5402 7.32403C22.6574 7.25668 21.7732 7.223 20.8876 7.223C20.2635 6.89469 19.7279 6.50323 19.2556 6.04863C18.7917 5.60667 18.2898 5.18996 17.7669 4.80692L17.7247 4.77745C15.1734 3.2916 12.2087 1.93203 9.10907 0.862888L8.75061 0.753449C7.9367 0.277808 6.95832 0 5.91668 0C5.17446 0 4.46176 0.143113 3.81232 0.399875L3.85027 0.387247C2.24775 1.02284 1.02477 2.31507 0.497625 3.92298L0.484974 3.96508C0.177121 4.68906 0 5.52669 0 6.41063C0 7.95962 0.548231 9.37812 1.46336 10.4851L1.45492 10.4725C2.98435 12.507 4.15672 14.1065 4.97204 15.271C5.58212 16.0876 6.21188 16.9365 6.86133 17.8176C7.45595 18.6089 7.98309 19.5139 8.40902 20.4694L8.44276 20.5578C8.67892 21.0587 8.88556 21.6564 9.03738 22.2709L9.05003 22.3383C9.18498 22.9163 9.35507 23.5449 9.56031 24.224C10.1704 25.7842 10.7481 27.3837 11.2936 29.0225C11.8882 30.8114 12.5461 32.3267 13.3094 33.7705L13.2292 33.6021C13.6369 34.3486 14.046 35.0781 14.4564 35.7909C14.8669 36.5037 15.3083 37.1996 15.7806 37.8787C16.0547 38.2912 16.4005 38.6321 16.797 38.8973L16.8096 38.9057C17.2271 39.2088 17.5012 39.6844 17.5223 40.2232C17.0416 40.9304 16.7168 41.7806 16.6072 42.694L16.603 42.7193C16.4554 43.7842 16.2445 44.7313 15.9577 45.6447L15.9915 45.5184C15.0511 48.3217 14.5113 51.5544 14.5113 54.9091C14.5113 55.9951 14.5661 57.0643 14.6799 58.1208L14.6673 57.9903C14.9203 62.0227 16.1391 65.7268 18.0916 68.9342L18.0326 68.829C18.8634 70.0707 19.7532 71.1525 20.7358 72.1416C21.4443 72.933 22.4733 73.4297 23.6203 73.4297C24.2613 73.4297 24.8686 73.2739 25.4 72.9961L25.3789 73.0045C26.8549 72.4742 27.905 71.1272 27.9809 69.5235V69.5151C28.1833 67.5199 28.4869 65.7352 28.9044 63.9926L28.8496 64.2746C28.9508 64.0095 29.0099 63.7064 29.0099 63.3865C29.0099 63.3234 29.0057 63.2602 29.0014 63.1971V63.2055C28.9677 62.8996 29.1547 62.6106 29.5623 62.3384V62.5404C29.97 63.4917 30.3945 64.4416 30.8359 65.3901C31.2773 66.3386 31.7356 67.2884 32.2107 68.2397C33.4548 70.1296 34.7747 71.7797 36.2254 73.2992L36.2128 73.2866C37.6677 74.8524 39.2534 76.2583 40.9655 77.5L41.0583 77.5631C41.9523 78.245 42.7367 78.9816 43.4452 79.7856L43.4621 79.8024C44.1284 80.5853 44.9254 81.2293 45.8237 81.7134L45.8659 81.7344V81.6334H46.0683C45.9038 81.2672 45.6381 80.9726 45.3092 80.7705L45.3008 80.7663C44.9676 80.5811 44.6808 80.3959 44.411 80.1939L44.432 80.2065C43.8219 79.5976 43.1922 78.9185 42.5427 78.1692C41.8933 77.42 41.2987 76.7072 40.7589 76.031C39.3307 74.061 37.9685 72.0027 36.6725 69.8561C35.3764 67.7094 34.152 65.5276 32.9993 63.3107C32.4539 62.2247 31.9267 61.1051 31.4179 59.9518C30.909 58.7985 30.4156 57.6788 29.9376 56.5928C29.731 56.1761 29.5876 55.6963 29.5328 55.187V55.1659C29.5075 54.6818 29.2292 54.2651 28.8243 54.0505L28.8159 54.0463C28.3056 54.9133 27.7405 55.6626 27.0953 56.3403L27.0995 56.3361C26.429 57.039 25.8807 57.8682 25.4885 58.7774L25.4675 58.8321C24.8728 60.2717 24.4385 61.9427 24.2487 63.6896L24.2403 63.7695C24.0378 65.5683 23.834 67.4175 23.6288 69.3173L23.4263 69.4183L23.3251 69.5193C22.2287 69.2962 21.3262 68.5975 20.837 67.6546L20.8286 67.6336C20.3169 66.6486 19.8586 65.6805 19.4538 64.7292C18.4079 62.048 17.7585 58.9458 17.6699 55.7047V55.6668C17.632 55.1533 17.6151 54.5514 17.6151 53.9494C17.6151 51.1461 18.0579 48.4438 18.876 45.9099L18.8254 46.0951C19.0278 45.3486 19.4692 44.0915 20.1496 42.3236C20.83 40.5557 20.9663 39.3337 20.5587 38.6574C20.3478 37.9629 19.9556 37.3778 19.4411 36.9316L19.4369 36.9274C18.9224 36.4812 18.4543 36.014 18.0242 35.5173L18.0115 35.5005C17.5364 34.8158 17.0781 34.0862 16.6367 33.3117C16.1953 32.5372 15.8045 31.7739 15.4643 31.0219C14.7685 29.414 14.0558 27.3977 13.4654 25.3268L13.3726 24.9522C12.7021 22.574 11.9557 20.562 11.0701 18.6258L11.1797 18.8951C10.7116 17.8344 10.1676 16.9168 9.53501 16.0792L9.56031 16.1129C8.87432 15.1981 8.26142 14.3324 7.72163 13.5158C7.03563 12.6346 6.35527 11.7858 5.68052 10.9692C4.99312 10.14 4.38163 9.20554 3.88401 8.20375L3.84605 8.11957C3.64363 7.71127 3.46651 7.23563 3.34421 6.74315L3.33578 6.69685C3.28939 6.54953 3.26408 6.37695 3.26408 6.20438C3.26408 5.85922 3.3653 5.53511 3.54242 5.26572L3.5382 5.27414C3.58459 5.03842 3.69424 4.83217 3.84605 4.6638C4.01052 4.51648 4.22138 4.40704 4.44911 4.36074H4.45754C4.816 4.12923 5.25037 3.99033 5.72269 3.99033C6.07693 3.99033 6.41852 4.07031 6.71794 4.21342L6.70529 4.20921C7.62885 4.47018 8.37529 4.73115 9.10486 5.03001L8.95304 4.97529C10.2435 5.51968 11.4341 6.04583 12.525 6.55374C13.7817 7.15145 14.8528 7.78283 15.865 8.48577L15.7891 8.43526C16.3345 8.7748 16.8785 9.14802 17.4211 9.55491C17.9637 9.9618 18.5415 10.3701 19.1544 10.7798H20.584C21.672 10.7798 22.8275 10.8317 24.0505 10.9355C25.2861 11.0323 26.429 11.2638 27.517 11.6258L27.4158 11.5964C29.4442 12.1983 31.1859 12.9096 32.8391 13.7641L32.6662 13.6841C34.3333 14.5316 35.9148 15.431 37.4105 16.3822C39.8944 17.927 42.0409 19.5097 44.0609 21.2397L43.9892 21.1807C46.0978 22.9823 48.0124 24.8301 49.8089 26.7832L49.8511 26.8337C51.6054 28.7447 53.2796 30.8198 54.8105 32.996L54.9412 33.1938C56.3497 35.1806 57.7709 37.4788 59.0487 39.8612L59.2258 40.219C59.5674 40.8672 59.9132 41.6628 60.2127 42.4751L60.259 42.614C60.5318 43.3941 60.8368 44.1939 61.1742 45.0133C61.922 46.711 62.7233 48.4242 63.578 50.1527C64.4326 51.8813 65.2339 53.5622 65.9817 55.1954L68.2253 60.0823C69.0139 61.7912 69.8953 63.2644 70.92 64.624L70.8736 64.5609C71.7297 65.4743 72.8726 66.1141 74.1546 66.3371L74.1883 66.3414C75.7403 66.7286 77.0476 67.1664 78.3127 67.6841L78.1145 67.6125C78.7176 67.8861 79.4935 68.1766 80.2906 68.4333L80.4593 68.4796C81.3533 68.7532 82.1293 69.1152 82.842 69.5698L82.804 69.5488C84.183 70.3191 85.3512 71.0767 86.4645 71.9017L86.3759 71.8386C87.5314 72.686 88.6869 73.4858 89.8424 74.2378C90.3879 74.6447 91.303 75.2382 92.5878 76.0183C93.8727 76.7984 94.553 77.528 94.6289 78.2071C94.1482 78.1903 93.5789 78.1777 93.0095 78.1777C90.9347 78.1777 88.8936 78.3123 86.8947 78.5733L87.1308 78.5481C84.8704 78.8511 82.8209 79.4025 80.8936 80.1897L81.0623 80.1307C80.5858 80.337 80.0165 80.5264 79.4261 80.6737L79.3459 80.6906C78.7471 80.7789 78.2832 81.2588 78.2242 81.8565C78.4814 82.1764 78.6881 82.551 78.8272 82.9551L78.8357 82.9804C78.979 83.4097 79.1519 83.7801 79.3628 84.1253L79.3501 84.1C79.852 84.9882 80.3918 85.7542 80.9991 86.4614L80.9822 86.4403C81.5768 87.1727 82.2473 87.8083 82.9896 88.3513L83.0191 88.3724C83.7051 88.9168 84.4192 89.4766 85.1614 90.0518C85.8404 90.5822 86.6079 91.1041 87.4049 91.5756L87.5061 91.6303C88.7038 92.3627 90.0955 93.0614 91.5462 93.6465L91.7402 93.7138C93.3174 94.3452 94.6711 95.0776 95.9278 95.9489L95.8603 95.9026C96.6785 96.3769 97.4938 96.903 98.3063 97.4811C99.1188 98.0592 99.9004 98.619 100.651 99.1606C100.959 99.4636 101.229 99.8004 101.457 100.167L101.469 100.188C101.853 100.625 102.384 100.924 102.987 101H103V100.798C102.629 100.516 102.355 100.124 102.224 99.6741L102.22 99.6573C102.114 99.2279 101.958 98.8533 101.748 98.5081L101.756 98.525L101.773 98.5418ZM23.4348 17.7039C22.8894 17.7039 22.3791 17.7208 21.9039 17.7544C21.419 17.7881 20.9677 17.8765 20.5418 18.0196L20.5798 18.007V18.108H20.7822C21.0549 18.5149 21.3979 18.9723 21.8112 19.4802C22.2245 19.9881 22.5984 20.4806 22.9329 20.9577L24.565 24.3166L24.7674 24.2156C25.2439 23.8704 25.6108 23.4074 25.8301 22.8644L25.8386 22.8434C26.0579 22.2583 26.1844 21.5764 26.1844 20.8693C26.1844 20.7935 26.1844 20.7177 26.1802 20.642V20.6546C25.9904 20.4694 25.8343 20.2505 25.7247 20.0064L25.7205 19.9937L25.3789 19.2277C25.1554 18.8741 24.8433 18.5963 24.4764 18.4195L24.4638 18.4153C24.0674 18.2259 23.73 17.986 23.4348 17.7039Z" fill="#7B4AE2" fill-opacity="0.5"/>
</svg>
