<svg width="103" height="103" viewBox="0 0 103 103" fill="none" xmlns="http://www.w3.org/2000/svg">
<path d="M48.1271 0.0277177C47.9056 0.0478516 47.2008 0.11832 46.5665 0.168655C31.937 1.48742 18.2339 9.37991 9.55494 21.5106C4.72209 28.2554 1.63109 35.9063 0.463148 44.0102C0.0503421 46.839 0 47.6746 0 51.5101C0 55.3456 0.0503421 56.1811 0.463148 59.01C3.26217 78.3486 17.0257 94.5966 35.6926 100.617C39.0353 101.694 42.5592 102.429 46.5665 102.872C48.1271 103.043 54.8729 103.043 56.4335 102.872C63.3505 102.107 69.2104 100.395 74.9896 97.4456C75.8757 96.9925 76.0468 96.8717 75.926 96.7711C75.8455 96.7107 72.0698 91.647 67.539 85.5263L59.303 74.4023L48.9829 59.1308C43.3043 50.7349 38.6326 43.8693 38.5923 43.8693C38.552 43.8592 38.5117 50.6443 38.4916 58.9294C38.4614 73.4359 38.4513 74.0198 38.2701 74.3621C38.0083 74.8553 37.8069 75.0567 37.3841 75.2781C37.0619 75.4392 36.78 75.4694 35.2596 75.4694H33.5178L33.0546 75.1775C32.7526 74.9862 32.5311 74.7345 32.3801 74.4426L32.1686 73.9896L32.1888 53.8053L32.219 33.6111L32.5311 33.2184C32.6922 33.007 33.0345 32.7352 33.2761 32.6044C33.689 32.403 33.85 32.3829 35.5919 32.3829C37.6458 32.3829 37.9882 32.4634 38.5218 33.0473C38.6728 33.2084 44.2608 41.6243 50.9462 51.7618C57.6317 61.8992 66.7738 75.7412 71.2643 82.5364L79.4197 94.8886L79.8325 94.6167C83.4874 92.2409 87.3537 88.8585 90.4145 85.335C96.9287 77.8553 101.127 68.7346 102.537 59.01C102.95 56.1811 103 55.3456 103 51.5101C103 47.6746 102.95 46.839 102.537 44.0102C99.7378 24.6716 85.9743 8.42355 67.3074 2.40352C64.0151 1.33642 60.5112 0.601534 56.5846 0.158588C55.618 0.0579185 48.9628 -0.0528179 48.1271 0.0277177ZM69.2104 31.1749C69.6936 31.4165 70.0863 31.8795 70.2273 32.3628C70.3078 32.6245 70.328 38.2217 70.3078 50.8356L70.2776 68.936L67.0859 64.0434L63.8842 59.1509V45.9934C63.8842 37.4868 63.9244 32.705 63.9848 32.4735C64.1459 31.9097 64.4983 31.4668 64.9816 31.2051C65.3944 30.9936 65.5455 30.9735 67.1262 30.9735C68.6163 30.9735 68.8781 30.9936 69.2104 31.1749Z" fill="#7B4AE2" fill-opacity="0.5"/>
</svg>
