<svg width="105" height="119" viewBox="0 0 105 119" fill="none" xmlns="http://www.w3.org/2000/svg">
<path d="M52.5 0.714593C50.9207 0.714343 49.3668 1.11276 47.9825 1.87293L4.8925 26.7771C3.51923 27.5834 2.38015 28.7342 1.58787 30.1156C0.795582 31.497 0.377519 33.0613 0.375 34.6538V84.3463C0.377519 85.9388 0.795582 87.503 1.58787 88.8844C2.38015 90.2659 3.51923 91.4166 4.8925 92.2229L16.4758 98.7096C19.4597 100.52 22.8894 101.463 26.3796 101.432C28.1557 101.567 29.9397 101.305 31.6018 100.664C33.2639 100.023 34.7623 99.0203 35.9882 97.7279C37.214 96.4355 38.1364 94.8862 38.6884 93.1926C39.2404 91.499 39.408 89.7036 39.1792 87.9371V38.8817C39.1792 38.7143 39.1462 38.5487 39.0822 38.3941C39.0181 38.2395 38.9243 38.099 38.806 37.9807C38.6877 37.8624 38.5472 37.7685 38.3926 37.7045C38.238 37.6405 38.0723 37.6075 37.905 37.6075H32.2292C32.057 37.5997 31.8851 37.6268 31.7238 37.6874C31.5624 37.7479 31.415 37.8405 31.2905 37.9596C31.166 38.0787 31.0669 38.2218 30.9993 38.3803C30.9317 38.5388 30.8969 38.7094 30.8971 38.8817V87.9371C30.8971 91.7596 26.9587 95.5242 20.6458 92.3388L9.0625 85.5625C8.8675 85.4248 8.70804 85.2427 8.59727 85.0312C8.4865 84.8198 8.4276 84.585 8.42542 84.3463V34.6538C8.41722 34.4132 8.47163 34.1747 8.58331 33.9615C8.69498 33.7483 8.8601 33.5677 9.0625 33.4375L52.1525 8.59126C52.3462 8.47943 52.5659 8.42055 52.7896 8.42055C53.0132 8.42055 53.233 8.47943 53.4267 8.59126L96.2271 33.4375C96.4295 33.5677 96.5946 33.7483 96.7063 33.9615C96.8179 34.1747 96.8724 34.4132 96.8642 34.6538V84.3463C96.862 84.585 96.8031 84.8198 96.6923 85.0312C96.5815 85.2427 96.4221 85.4248 96.2271 85.5625L53.1371 110.409C52.9328 110.52 52.7038 110.579 52.471 110.579C52.2383 110.579 52.0093 110.52 51.805 110.409L40.9167 103.806C40.7251 103.722 40.518 103.678 40.3085 103.678C40.0991 103.678 39.892 103.722 39.7004 103.806C37.6941 105.103 35.5087 106.098 33.2137 106.76C32.5187 106.76 31.4183 107.397 33.6192 108.613L47.9825 117.127C49.3541 117.926 50.9128 118.347 52.5 118.347C54.0872 118.347 55.6459 117.926 57.0175 117.127L100.107 92.2808C101.489 91.4696 102.634 90.3097 103.427 88.9172C104.219 87.5248 104.633 85.9486 104.625 84.3463V34.6538C104.622 33.0613 104.204 31.497 103.412 30.1156C102.62 28.7342 101.481 27.5834 100.107 26.7771L57.0175 1.87293C55.636 1.10559 54.0803 0.706688 52.5 0.714593ZM64.0833 36.3333C51.805 36.3333 44.4496 41.4879 44.4496 50.1754C44.4496 58.8629 51.7471 62.2221 63.5621 63.3804C77.6358 64.7704 78.7363 66.8554 78.7363 69.6354C78.7363 74.4425 74.8558 76.4696 65.8208 76.4696C54.2375 76.4696 51.9208 73.6317 51.0521 67.9558C50.9872 67.6644 50.8264 67.4032 50.5953 67.2142C50.3643 67.0251 50.0764 66.9192 49.7779 66.9133H43.9862C43.8215 66.9132 43.6585 66.9464 43.507 67.0111C43.3556 67.0759 43.2188 67.1707 43.1051 67.2898C42.9914 67.409 42.903 67.55 42.8454 67.7043C42.7878 67.8586 42.7622 68.023 42.77 68.1875C42.77 75.3692 46.7083 84.0567 65.5892 84.0567C79.1996 84.0567 87.0183 78.6704 87.0183 69.2879C87.0183 59.9054 80.7633 57.7046 67.5004 55.7354C54.2375 53.7663 52.7896 53.0713 52.7896 49.9438C52.7896 46.8163 53.9479 44.1521 63.8517 44.1521C72.5392 44.1521 75.9563 46.0633 77.2883 52.0288C77.3428 52.3098 77.4946 52.5625 77.7171 52.7426C77.9396 52.9227 78.2184 53.0186 78.5046 53.0133H84.2962C84.4623 53.0157 84.6266 52.9804 84.7771 52.9102C84.9275 52.84 85.0602 52.7367 85.165 52.6079C85.2942 52.4954 85.3897 52.3491 85.4409 52.1856C85.492 52.022 85.4967 51.8474 85.4546 51.6813C84.7017 41.0825 77.8675 36.3333 64.0833 36.3333Z" fill="#7B4AE2" fill-opacity="0.5"/>
</svg>
