<svg width="103" height="51" viewBox="0 0 103 51" fill="none" xmlns="http://www.w3.org/2000/svg">
<path d="M34.5702 15.1142C32.3297 12.5497 28.7652 11.2672 23.8787 11.2672H7.63648L0.100586 50.0409H8.54659L10.5503 39.7327H17.785C20.9774 39.7327 23.6035 39.3981 25.6655 38.7262C27.7269 38.0563 29.6008 36.9317 31.2873 35.3531C32.7029 34.0522 33.8472 32.6174 34.7247 31.0481C35.6006 29.4795 36.223 27.7486 36.5912 25.8554C37.485 21.259 36.8104 17.6792 34.5702 15.1142ZM27.8609 25.2632C27.2769 28.264 26.1525 30.4057 24.4862 31.6888C22.8189 32.9723 20.2824 33.6138 16.8775 33.6138H11.7392L14.8932 17.3859H20.6805C23.8896 17.3859 26.028 17.9779 27.097 19.1626C28.1653 20.3479 28.4206 22.3812 27.8609 25.2632ZM67.9615 21.6895L64.4553 39.7327H55.9423L59.2761 22.5771C59.6551 20.6253 59.5161 19.294 58.8569 18.5845C58.1986 17.8745 56.7965 17.5191 54.6524 17.5191H47.9556L43.6388 39.7327H35.2588L42.7947 0.958984H51.1747L49.1712 11.2672H56.6369C61.3335 11.2672 64.5736 12.0874 66.3569 13.7252C68.1405 15.3639 68.6742 18.019 67.9615 21.6895ZM100.496 15.1142C98.2558 12.5497 94.6912 11.2672 89.8055 11.2672H73.5633L66.0274 50.0409H74.4734L76.4771 39.7327H83.7118C86.9042 39.7327 89.5293 39.3981 91.5916 38.7262C93.653 38.0563 95.5269 36.9317 97.2133 35.3531C98.6287 34.0522 99.774 32.6174 100.651 31.0481C101.527 29.4795 102.149 27.7486 102.517 25.8554C103.411 21.259 102.737 17.6792 100.496 15.1142ZM93.7875 25.2632C93.2037 28.264 92.0794 30.4057 90.4121 31.6888C88.7456 32.9723 86.2084 33.6138 82.8034 33.6138H77.666L80.82 17.3859H86.6067C89.8158 17.3859 91.9541 17.9779 93.0239 19.1626C94.0921 20.3479 94.3464 22.3812 93.7875 25.2632Z" fill="#7B4AE2" fill-opacity="0.5"/>
</svg>
