<svg width="103" height="92" viewBox="0 0 103 92" fill="none" xmlns="http://www.w3.org/2000/svg">
<path d="M45.7045 67.3865C47.5934 67.4726 49.5235 67.5346 51.4777 67.5346C53.4524 67.5346 55.4032 67.4933 57.3161 67.3865C55.4032 69.8661 53.5143 72.0599 51.5155 74.1503L51.5429 74.1228C49.5544 72.0564 47.6449 69.8592 45.8453 67.5725L45.7045 67.3865ZM26.1355 64.6314C29.8549 65.5785 34.3917 66.3844 39.0212 66.8803L39.4711 66.9182C42.3045 70.8201 45.1687 74.2536 48.2425 77.484L48.2047 77.4427C43.7023 82.4811 37.6269 86.0214 30.7547 87.2922L30.5658 87.3198C30.5521 87.3198 30.5384 87.3198 30.5246 87.3198C29.6729 87.3198 28.8693 87.1097 28.1652 86.7377L28.1927 86.7515C25.3353 85.1157 24.0955 78.8581 25.0606 70.8166C25.2907 68.8364 25.6684 66.7529 26.1321 64.628L26.1355 64.6314ZM76.9057 64.5867C77.311 66.2191 77.6922 68.2992 77.9635 70.4137L77.9944 70.7099C78.9801 78.7479 77.7643 84.9986 74.9309 86.6689C74.299 87.0201 73.5435 87.2268 72.7398 87.2268C72.6608 87.2268 72.5818 87.2233 72.5029 87.2199H72.5132C65.4624 85.9284 59.3904 82.4122 54.8983 77.4358L54.8743 77.4083C57.8931 74.2295 60.7367 70.8029 63.3434 67.1971L63.5426 66.9078C68.6117 66.3775 73.1554 65.5578 77.5823 64.4386L76.9057 64.5832V64.5867ZM30.1503 51.7341C31.0089 53.4216 31.9087 55.1022 32.8978 56.7897C33.8846 58.468 34.8931 60.1073 35.9234 61.7076C32.9424 61.2702 30.0644 60.7192 27.3135 60.0476C28.0862 57.3373 29.0547 54.5305 30.1468 51.7272L30.1503 51.7341ZM72.8326 51.648C73.9693 54.4754 74.9344 57.2959 75.7346 60.0304C72.9871 60.7054 70.0851 61.2771 67.0834 61.7076C68.1137 60.0924 69.144 58.429 70.1091 56.7243C71.0742 55.0471 71.9774 53.332 72.8394 51.6445L72.8326 51.648ZM22.7149 33.2266C24.2123 38.3167 25.8195 42.5733 27.6913 46.6784L27.4337 46.0517C25.8333 49.5128 24.25 53.7453 22.9519 58.1018L22.7733 58.8078C20.3486 58.0605 18.3979 57.3269 16.4987 56.5039L16.8936 56.6554C9.46167 53.4836 4.65356 49.313 4.65356 46.0069C4.65356 42.7008 9.46167 38.5095 16.8936 35.3515C18.6967 34.5766 20.6749 33.8775 22.7149 33.2266ZM80.2027 33.2094C82.2805 33.8534 84.2552 34.5732 86.1029 35.3515C93.5349 38.5371 98.343 42.7008 98.343 46.0069C98.3224 49.313 93.5143 53.4939 86.0823 56.6588C84.2793 57.4337 82.3045 58.1294 80.268 58.7803C78.7568 53.673 77.1495 49.4198 75.2847 45.3078L75.5457 45.9552C77.1392 42.4976 78.7259 38.265 80.0207 33.9085L80.2027 33.1991V33.2094ZM67.056 30.3062C70.0404 30.7505 72.915 31.2946 75.6659 31.973C74.8932 34.6937 73.9281 37.4902 72.8326 40.2935C71.974 38.6163 71.0742 36.9254 70.0851 35.2413C69.12 33.5538 68.0897 31.9111 67.0594 30.3096L67.056 30.3062ZM35.8994 30.3062C34.8691 31.9283 33.8388 33.5882 32.8772 35.2998C31.9121 36.977 31.0089 38.6645 30.1503 40.352C29.0135 37.528 28.0484 34.7144 27.2482 31.973C29.9957 31.329 32.8909 30.7539 35.896 30.3131L35.8994 30.3062ZM51.4983 29.2111C54.6751 29.2111 57.8381 29.3557 60.9497 29.6105C62.692 32.1154 64.384 34.7833 66.0256 37.6141C67.6215 40.3692 69.0777 43.1611 70.3942 45.9897C69.0719 48.8102 67.6226 51.6273 66.0462 54.3824C64.4149 57.2236 62.7287 59.9271 60.9806 62.4308C57.8553 62.7028 54.6888 62.8509 51.4948 62.8509C48.3181 62.8509 45.155 62.6994 42.0435 62.4514C40.3023 59.9477 38.6022 57.2684 36.9675 54.4479C35.3717 51.6927 33.9155 48.9009 32.599 46.0723C33.9006 43.2449 35.3705 40.4209 36.9469 37.6623C38.5782 34.8211 40.2645 32.128 42.0126 29.6243C45.1378 29.3488 48.3043 29.2042 51.4983 29.2042V29.2111ZM51.433 17.9117C53.425 19.978 55.3345 22.1717 57.1306 24.4585L57.268 24.641C55.3791 24.5549 53.449 24.4964 51.4948 24.4964C49.5201 24.4964 47.5694 24.5377 45.6564 24.641C47.5659 22.1614 49.4548 19.9677 51.4571 17.8772L51.4296 17.9048L51.433 17.9117ZM30.48 4.78356C37.5307 6.07846 43.5992 9.59467 48.0948 14.5676L48.1189 14.5952C45.1001 17.7773 42.2564 21.204 39.6497 24.8167L39.4505 25.1059C34.3848 25.6329 29.8412 26.4456 25.4177 27.5649L26.0909 27.4202C25.61 25.3126 25.2529 23.2703 25.0022 21.3108C24.0165 13.2727 25.2323 7.02208 28.0656 5.35869C28.7731 5.02463 29.6008 4.818 30.4731 4.79045H30.4834L30.48 4.78356ZM72.4136 4.69746V4.72501C72.4582 4.72501 72.5097 4.72157 72.5647 4.72157C73.3855 4.72157 74.1582 4.92476 74.8382 5.28292L74.8107 5.26915C77.6681 6.91188 78.9079 13.166 77.9429 21.2109C77.7128 23.1911 77.335 25.2781 76.8714 27.4065C73.1451 26.4491 68.6083 25.6397 63.9788 25.1473L63.5392 25.1094C60.7024 21.204 57.8381 17.7705 54.7644 14.5366L54.8056 14.578C59.308 9.5499 65.3731 6.00958 72.2315 4.7319L72.4239 4.7009L72.4136 4.69746ZM72.4342 0.00688727C64.0475 1.28457 56.7872 5.36902 51.4845 11.2615L51.4571 11.2925C46.1166 5.40346 38.8564 1.34656 30.6757 0.117092L30.4834 0.0929848C30.4388 0.0929848 30.3838 0.0929848 30.3289 0.0929848C28.6426 0.0929848 27.0593 0.537246 25.689 1.31556L25.7371 1.29146C19.8369 4.70435 18.5147 15.3391 21.5609 28.6841C8.49662 32.7307 0 39.1983 0 46.0138C0 52.8568 8.54126 59.3416 21.6434 63.3572C18.6211 76.7539 19.9708 87.4058 25.8848 90.8153C27.183 91.5626 28.7422 92 30.401 92C30.4765 92 30.5521 92 30.6242 91.9966H30.6139C39.0006 90.7189 46.2609 86.631 51.5635 80.735L51.591 80.704C56.9314 86.5965 64.1917 90.6534 72.3723 91.8829L72.5647 91.907C72.6162 91.907 72.6814 91.907 72.7433 91.907C74.4192 91.907 75.9956 91.4662 77.359 90.6982L77.311 90.7223C83.2078 87.3129 84.5334 76.6781 81.4871 63.3296C94.5034 59.3175 103 52.8361 103 46.0103C103 39.1673 94.4587 32.6825 81.3566 28.6566C84.3789 15.2736 83.0292 4.61136 77.1152 1.19847C75.8033 0.444262 74.2303 0 72.5544 0C72.5097 0 72.4651 0 72.4204 0H72.4273L72.4342 0.00688727ZM61.0699 46.0138C61.0699 51.3277 56.7735 55.636 51.4742 55.636C46.175 55.636 41.8786 51.3277 41.8786 46.0138C41.8786 40.6999 46.175 36.3916 51.4742 36.3916C54.1256 36.3916 56.5228 37.4695 58.2605 39.2087C59.9983 40.9513 61.0699 43.3551 61.0699 46.0138Z" fill="#7B4AE2" fill-opacity="0.5"/>
</svg>
