<svg width="104" height="63" viewBox="0 0 104 63" fill="none" xmlns="http://www.w3.org/2000/svg">
<path d="M52 0C38.1333 0 29.4667 6.9277 26 20.7831C31.2 13.8554 37.2667 11.2575 44.2 12.9894C48.1563 13.9766 50.9817 16.843 54.1147 20.0211C59.215 25.1908 65.1127 31.1746 78 31.1746C91.8667 31.1746 100.533 24.2469 104 10.3915C98.8 17.3192 92.7333 19.9171 85.8 18.1852C81.8437 17.198 79.0183 14.3317 75.8853 11.1536C70.7893 5.9838 64.8917 0 52 0ZM26 31.1746C12.1333 31.1746 3.46667 38.1023 0 51.9577C5.2 45.03 11.2667 42.4322 18.2 44.1641C22.1563 45.1513 24.9817 48.0176 28.1147 51.1957C33.215 56.3655 39.1127 62.3493 52 62.3493C65.8667 62.3493 74.5333 55.4216 78 41.5662C72.8 48.4939 66.7333 51.0918 59.8 49.3599C55.8437 48.3727 53.0183 45.5063 49.8853 42.3282C44.7893 37.1585 38.8917 31.1746 26 31.1746Z" fill="#7B4AE2" fill-opacity="0.5"/>
</svg>
