<svg width="103" height="103" viewBox="0 0 103 103" fill="none" xmlns="http://www.w3.org/2000/svg">
<path d="M0 11.2656C0 5.04379 5.04379 0 11.2656 0H91.7344C97.9562 0 103 5.04379 103 11.2656V24.1406C103 26.8071 100.838 28.9688 98.1719 28.9688C95.5055 28.9688 93.3438 26.8071 93.3438 24.1406V11.2656C93.3438 10.3768 92.6234 9.65625 91.7344 9.65625H11.2656C10.3768 9.65625 9.65625 10.3768 9.65625 11.2656V91.7344C9.65625 92.6234 10.3768 93.3438 11.2656 93.3438H98.1719C100.838 93.3438 103 95.5055 103 98.1719C103 100.838 100.838 103 98.1719 103H11.2656C5.04379 103 0 97.9562 0 91.7344V11.2656ZM30.5781 41.8438C30.5781 39.1773 32.7398 37.0156 35.4062 37.0156H59.5469C62.2134 37.0156 64.375 39.1773 64.375 41.8438C64.375 44.5102 62.2134 46.6719 59.5469 46.6719H53.1094V80.4688C53.1094 83.1352 50.9477 85.2969 48.2812 85.2969C45.6148 85.2969 43.4531 83.1352 43.4531 80.4688V46.6719H35.4062C32.7398 46.6719 30.5781 44.5102 30.5781 41.8438ZM72.5873 42.3595C75.2827 39.1506 79.5076 37.0156 85.2969 37.0156C90.6715 37.0156 94.7265 38.8546 97.4599 41.746C99.2914 43.6838 99.2051 46.7396 97.2674 48.5713C95.3297 50.4029 92.2738 50.3169 90.4424 48.379C89.7349 47.6309 88.3251 46.6719 85.2969 46.6719C82.0736 46.6719 80.6657 47.7557 79.9814 48.5702C79.1388 49.5729 78.8594 50.8305 78.8594 51.5C78.8594 52.1695 79.1388 53.4271 79.9814 54.4298C80.6657 55.2443 82.0736 56.3281 85.2969 56.3281C85.7842 56.3281 86.2548 56.4003 86.6977 56.5346C90.9664 57.1422 94.1929 59.048 96.3971 61.672C98.9341 64.6924 99.7812 68.2633 99.7812 70.8125C99.7812 73.3617 98.9341 76.9326 96.3971 79.9531C93.7017 83.1622 89.4767 85.2969 83.6875 85.2969C78.3128 85.2969 74.2579 83.4577 71.5245 80.5666C69.693 78.6289 69.7793 75.573 71.717 73.7409C73.6547 71.9094 76.7105 71.9957 78.542 73.9334C79.2495 74.6814 80.6593 75.6406 83.6875 75.6406C86.9108 75.6406 88.3186 74.5566 89.0029 73.7422C89.8456 72.7392 90.125 71.482 90.125 70.8125C90.125 70.143 89.8456 68.8858 89.0029 67.8828C88.3186 67.0684 86.9108 65.9844 83.6875 65.9844C83.2002 65.9844 82.7296 65.9123 82.2867 65.7777C78.018 65.17 74.7915 63.2645 72.5873 60.6405C70.0503 57.6198 69.2031 54.0492 69.2031 51.5C69.2031 48.9508 70.0503 45.3802 72.5873 42.3595Z" fill="#7B4AE2" fill-opacity="0.5"/>
</svg>
