<svg width="103" height="95" viewBox="0 0 103 95" fill="none" xmlns="http://www.w3.org/2000/svg">
<path fill-rule="evenodd" clip-rule="evenodd" d="M66.7107 94.8746L53.9272 60.4908L39.2897 94.9784C33.7522 94.838 30.5412 91.4747 30.5412 91.4747L8.72424 22.4628C8.72424 22.4628 7.86396 19.0384 2.99287 19.0384H0L1.98722 13.8378H29.8686V19.0384C29.8686 19.0384 27.0999 21.2847 27.7481 24.3977C28.4025 27.5108 39.5623 72.3509 39.5623 72.3509L50.3223 48.356L45.3301 32.4856C43.4155 27.6084 41.8404 22.9083 40.5862 21.6631C38.8171 19.7282 35.594 19.0384 35.594 19.0384V13.8378H69.946V19.0384H64.263C64.263 19.0384 61.2701 19.6427 61.0096 24.0742C60.9551 24.9654 61.47 28.0663 61.47 28.0663L74.7988 72.2166C74.7988 72.2166 88.4912 46.8849 88.685 41.3669C88.885 35.8611 86.7645 26.8454 80.7847 23.2441C71.2183 17.4392 73.6357 5.89036 81.0089 1.80676C84.1593 0.0671253 86.9644 0 90.1572 0C101.414 0 102.68 12.855 102.68 12.855C103.426 17.2866 102.898 24.825 100.778 31.4722C95.2404 48.7588 81.5359 79.8588 76.2287 91.7006C71.9635 95.9673 66.7107 94.8747 66.7107 94.8747" fill="#7B4AE2" fill-opacity="0.5"/>
</svg>
